<svg xmlns="http://www.w3.org/2000/svg" xmlns:xlink="http://www.w3.org/1999/xlink" zoomAndPan="magnify" preserveAspectRatio="xMidYMid meet" version="1.0" viewBox="1.59 36.21 372 302.58"><defs><g/><clipPath id="c9736d829e"><path d="M 1.585938 112 L 373.585938 112 L 373.585938 338.460938 L 1.585938 338.460938 Z M 1.585938 112 " clip-rule="nonzero"/></clipPath><clipPath id="bcba55887d"><path d="M 1.585938 36.210938 L 373.585938 36.210938 L 373.585938 107 L 1.585938 107 Z M 1.585938 36.210938 " clip-rule="nonzero"/></clipPath></defs><g clip-path="url(#c9736d829e)"><path fill="#33afff" d="M 28.300781 338.789062 L 346.714844 338.789062 C 361.367188 338.789062 373.246094 326.910156 373.246094 312.253906 L 373.246094 112.921875 C 373.214844 112.925781 1.792969 112.925781 1.792969 112.925781 C 1.765625 112.921875 1.765625 312.253906 1.765625 312.253906 C 1.765625 326.910156 13.644531 338.789062 28.300781 338.789062 Z M 96.523438 217.441406 L 151.945312 217.441406 C 153.78125 217.441406 155.261719 218.925781 155.261719 220.757812 C 155.261719 222.589844 153.78125 224.074219 151.945312 224.074219 L 96.523438 224.074219 C 94.6875 224.074219 93.207031 222.589844 93.207031 220.757812 C 93.207031 218.925781 94.6875 217.441406 96.523438 217.441406 Z M 42.28125 156.597656 C 40.980469 155.3125 40.964844 153.214844 42.253906 151.910156 C 43.539062 150.609375 45.636719 150.589844 46.945312 151.882812 L 78.023438 182.589844 C 79.324219 183.875 79.339844 185.972656 78.050781 187.28125 L 46.972656 218.738281 C 46.324219 219.390625 45.46875 219.722656 44.613281 219.722656 C 43.769531 219.722656 42.929688 219.40625 42.28125 218.761719 C 40.980469 217.476562 40.964844 215.378906 42.253906 214.074219 L 71 184.976562 Z M 42.28125 156.597656 " fill-opacity="1" fill-rule="nonzero"/></g><g clip-path="url(#bcba55887d)"><path fill="#33afff" d="M 373.246094 62.746094 C 373.246094 48.089844 361.367188 36.210938 346.714844 36.210938 L 28.300781 36.210938 C 13.644531 36.210938 1.765625 48.089844 1.765625 62.746094 L 1.765625 106.300781 C 1.792969 106.292969 373.214844 106.292969 373.214844 106.292969 C 373.246094 106.300781 373.246094 62.746094 373.246094 62.746094 Z M 257.695312 75.476562 L 244.429688 75.476562 C 242.59375 75.476562 241.109375 73.992188 241.109375 72.160156 C 241.109375 70.328125 242.59375 68.84375 244.429688 68.84375 L 257.695312 68.84375 C 259.527344 68.84375 261.011719 70.328125 261.011719 72.160156 C 261.011719 73.992188 259.527344 75.476562 257.695312 75.476562 Z M 290.863281 75.476562 L 277.597656 75.476562 C 275.761719 75.476562 274.28125 73.992188 274.277344 72.160156 C 274.277344 70.328125 275.761719 68.84375 277.597656 68.84375 L 290.863281 68.84375 C 292.695312 68.84375 294.179688 70.328125 294.179688 72.160156 C 294.179688 73.992188 292.695312 75.476562 290.863281 75.476562 Z M 324.03125 75.476562 L 310.765625 75.476562 C 308.929688 75.476562 307.449219 73.992188 307.449219 72.160156 C 307.449219 70.328125 308.929688 68.84375 310.765625 68.84375 L 324.03125 68.84375 C 325.863281 68.84375 327.347656 70.328125 327.347656 72.160156 C 327.347656 73.992188 325.863281 75.476562 324.03125 75.476562 Z M 324.03125 75.476562 " fill-opacity="1" fill-rule="nonzero"/></g><g fill="#33afff" fill-opacity="1"><g transform="translate(182.578118, 196.499987)"><g><path d="M 2.28125 -2.796875 C 2.28125 -4.023438 2.613281 -4.882812 3.28125 -5.375 C 3.945312 -5.875 4.757812 -6.125 5.71875 -6.125 C 6.65625 -6.125 7.457031 -5.875 8.125 -5.375 C 8.789062 -4.882812 9.125 -4.023438 9.125 -2.796875 C 9.125 -1.628906 8.789062 -0.785156 8.125 -0.265625 C 7.457031 0.253906 6.65625 0.515625 5.71875 0.515625 C 4.757812 0.515625 3.945312 0.253906 3.28125 -0.265625 C 2.613281 -0.785156 2.28125 -1.628906 2.28125 -2.796875 Z M 2.28125 -2.796875 "/></g></g></g></svg>